<?xml version="1.0" encoding="UTF-8"?>
<svg fill="none" viewBox="0 0 128 128" xmlns="http://www.w3.org/2000/svg">
<path d="m85.407 9.6136c0.7113 0.3563 10.152 5.2148 17.927 14.692 7.364 8.9148 14.036 24.337 6.033 44.18-5e-3 0.011-0.01 0.0209-0.014 0.03 1e-3 3.7069-0.195 9.3743-1.301 11.613-0.938 1.8225-4.229 3.8667-7.994 4.9832-5.7428 1.7347-11.073 0.898-14.568-2.2223-5.3939-4.8007-5.2606-12.481-4.671-16.607 0.0263-0.1787 0.0604-0.355 0.102-0.5286-2.6314-1.6711-5.4486-0.175-6.5037 0.5135 0.2642 4.2569 5e-4 13.043-6.3189 15.977-1.6503 0.7693-3.1585 1.3855-4.6149 1.823-6.1484 1.8517-11.231 0.9693-16.398-2.8581-2.1878-1.6271-5.9375-6.0963-6.1494-17.646-5e-3 -0.1766 0.0028-0.3518 0.0226-0.5248-0.0604-0.0556-0.1158-0.1199-0.165-0.1932-2.2094-2.9729-5.8194-1.9575-6.9938-1.525-0.1465 0.4846-0.2341 0.9921-0.2627 1.5226l-0.8168 15.558c0.0034 0.0181-0.0023 0.0379-8e-3 0.0577-0.0058 0.0198-0.0115 0.0396-0.0081 0.0578-0.1333 0.6993-0.6006 1.2352-1.2826 1.4358-0.8651 0.2344-1.7732-0.1606-2.1867-0.9467-2.3275-4.707-4.7385-8.049-7.1097-9.9739-0.0068-0.0362-2.3437-1.78-4.7858-1.0677-0.5722 0.1804-1.1239 0.4695-1.6483 0.9035-0.2954 0.2418-0.6615 0.3093-0.9886 0.1821-10.526-51.593 31.216-55.871 31.216-55.871 1.06-0.6076 5.7621-3.1983 12.18-5.1303 7.3858-2.2228 18.16-3.7578 27.31 1.5667zm-50.088 48.988c2.1501-0.2799 4.7615 0.0716 6.7436 2.1619 0.3749-0.3749 0.8297-0.6759 1.3438-0.871 1.1105-0.4583 2.2777-0.8425 3.4527-1.1859 6.0321-1.7879 17.424-3.7174 25.931 3.7665 0.4649 0.4053 0.8362 0.8925 1.1039 1.4363 2.0212-1.1043 5.1188-1.9182 7.9993-0.2624 0.4719-0.644 1.0789-1.1952 1.7992-1.6174 2.5003-1.4757 4.9383-2.6016 7.2881-3.2882 8.1644-2.4494 13.292 0.6282 15.947 3.1919-1.393-7.4419-3.432-13.498-6.183-18.408-3.8204-6.1938-14.387-11.595-18.831-13.663l3.0892 10.152c0.2509 0.9284-0.251 1.8831-1.1825 2.1672-0.5425 0.1374-1.1259 0.0574-1.574-0.3099-4.0725-3.1109-12.189-12.599-15.031-16.012-1.646 3.5271-4.2671 10.12-3.5721 13.404 0.1162 0.6159-0.2276 1.204-0.8364 1.3912-0.4692 0.1239-0.9862-0.0058-1.2878-0.4001-3.4676-4.1221-5.1146-7.23-5.8082-9.5014-2.2056 4.9798-3.4039 9.4741-3.641 13.641 0.0137 0.0724-0.0092 0.1516-0.0322 0.2308-0.1308 0.5114-0.5522 0.889-1.0512 1.0559-0.6088 0.1871-1.2928-0.0243-1.695-0.55-1.8971-2.4245-2.985-6.3852-3.5819-9.3492-2.3311 5.9636-7.1415 17.786-10.391 22.819zm12.196 2.2257c-1.1336 0.3358-2.2182 0.7047-3.2874 1.1555-0.6379 0.2444-1.0747 0.8747-1.0753 1.5515 0.0923 3.6627 0.7428 12.552 5.2577 15.865 4.5226 3.354 8.9391 4.1053 14.367 2.5132 1.3737-0.4222 2.7657-0.9747 4.3411-1.6879 1.8079-0.8406 5.8869-3.9183 4.977-14.409-0.0407-0.6693-0.3706-1.2852-0.8349-1.7072-7.6356-6.714-18.16-4.9444-23.745-3.281zm44.047 0.0908c-2.1433 0.6487-4.4315 1.6623-6.7742 3.0667-0.9634 0.5581-1.6355 1.5278-1.7655 2.6515-0.5015 3.6874-0.665 10.527 3.9627 14.665 4.1144 3.683 10.032 2.4236 12.382 1.7369 3.7649-1.1165 6.1129-2.9448 6.5449-3.828 1.11-2.2768 1.132-10.317 1.027-13.596-0.766-1.3393-5.265-7.7429-15.377-4.6958z" clip-rule="evenodd" fill="#0D0D0D" fill-rule="evenodd"/>
</svg>